<?xml version="1.0" encoding="utf-8"?>
<!-- Generator: Adobe Illustrator 27.0.0, SVG Export Plug-In . SVG Version: 6.00 Build 0)  -->
<svg version="1.1" id="Layer_1" xmlns="http://www.w3.org/2000/svg" xmlns:xlink="http://www.w3.org/1999/xlink" x="0px" y="0px"
	 viewBox="0 0 3335 3335" style="enable-background:new 0 0 3335 3335;" xml:space="preserve">
<path d="M0,1667.5v1667h3335l-0.2-1666.7L3334.5,1L1667.3,0.7L0,0.5V1667.5z M3214,1667.2V3214H121V120.5h3093V1667.2z"/>
<path d="M-4627.5,1998.2v1667h3335l-0.2-1666.7l-0.3-1666.8l-1667.2-0.3l-1667.3-0.2V1998.2z M-1413.5,1997.9v1546.8h-3093V451.2
	h3093V1997.9z"/>
<path d="M-3719.1,1871.6V2455h1167.2l-0.1-583.3l-0.1-583.4l-583.5-0.1l-583.6-0.1V1871.6z M-2594.2,1871.4v541.4h-1082.6V1330.1
	h1082.6V1871.4z"/>
<path d="M-3586.9-587.6V-4.1h1167.2l-0.1-583.3l-0.1-583.4l-583.5-0.1l-583.6-0.1V-587.6z M-2462-587.7v541.4h-1082.6V-1129H-2462
	V-587.7z"/>
<path d="M-1298.4-213.4v361.7h723.7l0-361.7l-0.1-361.7l-361.8-0.1l-361.8,0V-213.4z M-600.9-213.5v335.7h-671.2v-671.3h671.2
	V-213.5z"/>
<path d="M-2024.6-520.7v325.6h651.3l0-325.5l-0.1-325.5l-325.6-0.1l-325.6,0V-520.7z M-1396.9-520.7v302.1H-2001v-604.2h604.1
	V-520.7z"/>
<path d="M-1343.9-375.5v291.7h583.6l0-291.7l-0.1-291.7l-291.8-0.1l-291.8,0V-375.5z M-781.5-375.5v270.7h-541.3v-541.4h541.3
	V-375.5z"/>
<path d="M-1722.9-1499.4c-12.9,1.3-28.3,5.4-38.7,10.3c-16.1,7.6-23.6,17.3-27.9,36c-1.7,7.2-1.9,12.5-1.9,52
	c0.1,42.2,0.2,44.3,2.3,51.9c5.1,18.3,11.6,26.4,27.3,33.9c17.2,8.3,33,11.1,62.9,11.2c23.3,0,34.1-1.2,48-5.2
	c24.5-7,36.1-17.7,42.2-38.8c2.3-7.8,2.3-8.9,2.3-54c0-41.7-0.2-46.7-1.9-53c-7.3-27.6-27.5-40.5-69.6-44.5
	C-1690.5-1500.8-1709.6-1500.7-1722.9-1499.4L-1722.9-1499.4z M-1678.4-1467.1c13.9,3,23.5,9.5,27.4,18.4c3,7.2,3.7,18.2,3.1,55.1
	l-0.5,32.5l-2.8,5.7c-6.8,13.9-21.3,19.8-48.5,19.9c-25.3,0-40.2-6.3-46.9-19.9l-2.8-5.7l-0.5-32.5c-0.6-39.8,0-48.5,3.8-56
	c3.2-6.4,10-12,18.2-15.1C-1716.1-1469.1-1693.3-1470.2-1678.4-1467.1z M-1482.9-1499.5c-32.7,3.7-54.7,15-62.5,32.2
	c-5.7,12.5-6,15.3-6,64.7c0,50.6,0.4,54.4,6.7,66.8c9.9,19.7,36,30.4,77.8,31.9c32.8,1.2,60.4-4,76.6-14.3
	c13.7-8.7,20.1-19.7,22.9-39.4c1.5-11.2,1.8-72.6,0.4-86.3c-3-28.1-15.9-43-44.4-51.2C-1428.1-1499.8-1461.4-1501.8-1482.9-1499.5
	L-1482.9-1499.5z M-1445.4-1468.2c14.4,1.1,27.8,8.2,32.8,17.4c3.9,7.2,4.7,15.1,4.7,49.2c0,40.1-1.1,46.1-9.6,54.4
	c-8.3,8.1-20.8,11.6-41.6,11.8c-11.8,0-15.7-0.3-22.1-2.1c-10.8-2.9-16.7-6.2-21.6-11.7c-7.3-8.3-7.6-10.5-7.6-52.9
	c0-42.2,0.3-44.6,7.4-52.7C-1492.6-1466.5-1475.5-1470.5-1445.4-1468.2L-1445.4-1468.2z M-1027.4-1500c-9.4,0.9-24.6,3.8-32,6.1
	c-22.4,7.1-33.8,18.2-39.2,38.3c-1.6,5.8-1.8,11.7-1.8,53.5c0,42.1,0.2,47.7,1.8,53.5c5.3,19.4,15.6,30,36.2,37.3
	c15.7,5.6,33.6,7.7,59.5,7.1c21.4-0.4,23.9-0.7,37.9-4c21.4-5,35.7-14.7,42.6-28.8c6-12.4,6.5-17.3,6.5-65.3c0-38.7-0.2-43.6-2-51.6
	c-5.5-25-22.5-38.3-56.5-44.3C-982.9-1499.7-1017.6-1500.8-1027.4-1500L-1027.4-1500z M-987.3-1467.1c14.7,3.4,24.8,11.3,28.1,22.1
	c1.6,5.2,1.8,10,1.8,42.9c0,42.4-0.3,44.6-7.6,52.9c-8.4,9.5-21.6,13.7-43.4,13.7c-20.6,0-33.1-3.5-41.8-11.9
	c-8.7-8.3-9.7-13.8-9.7-55.2c0-31.6,0.8-40.7,4-46.9c3.8-7.5,13.3-14.2,24.4-17.2C-1021.3-1469.5-998.4-1469.7-987.3-1467.1z
	 M-266.4-1497c-42,6.4-72.7,31.9-82.2,68.3c-2,7.5-2.6,12.7-2.8,23.6c-0.7,30.9,7.4,52.6,26.6,71.1c21.3,20.4,45,28.8,81.4,28.7
	c20.9-0.1,34.9-2.3,54.5-8.8c13.1-4.4,46.5-20,49-23c0.8-1,0.8-1.9,0.1-3.4c-1-1.7-1.6-1.9-3.7-1.1c-2.9,1.2-5.8,0-7.4-3
	c-0.6-1.1-1-10.9-1-24.4c0-18.9,0.2-22.7,1.5-24c1.5-1.4,5.8-2.9,11-3.8c1.2-0.2,2.1-1.2,2.3-2.6l0.3-2.2h-47.1
	c-31.9,0-47.8-0.4-49.2-1.1c-2.2-1.2-5.7-8.2-5.8-11.7c0-1.7-0.6-2.2-2.5-2.2h-2.5v28c0,27.5,0,28,2,28c2.2,0,2.5-0.5,3.5-6.4
	c0.3-2.1,1.7-4.9,3-6.2c2.4-2.4,2.4-2.4,26.5-2.4h24v24.8l-3.2,2c-10.6,6.5-33.4,11.4-52.3,11.4c-14.8-0.1-24.5-2-35-7.1
	c-10.2-4.8-17.4-10.6-23.1-18.4c-9.1-12.3-11.9-21.6-11.8-39.2c0.1-11.5,0.4-13.9,2.9-21.4c6.6-19.4,21.8-33.8,42.5-40.3
	c6.5-2,9.6-2.3,22.5-2.3c20.1,0,36.1,4,49.9,12.2c7.1,4.4,8.9,7.8,7.5,14.3c-1,4.3-0.3,5.9,2.7,6c0.6,0,6.8-11.8,13.8-26.2
	c11.7-23.9,12.6-26.3,11.1-27.4s-2.2-0.9-4.7,1.6c-4,4-7.1,3.9-19.9-0.9c-14.6-5.5-26.8-9-37.9-10.6
	C-231.6-1498.9-254.4-1498.9-266.4-1497z M-2144.3-1492c-0.9,2.4-0.1,3.1,5.1,3.7c7.7,0.9,12.1,3.3,15.2,8.2
	c2.3,3.7,56.4,141.3,60.1,152.8c1.1,3.5,1,4.1-1,6.2c-1.2,1.2-4.7,3-7.8,4c-3.1,0.9-6.3,1.8-6.9,2.1c-0.7,0.2-1.3,1.3-1.3,2.4
	c0,2,0.5,2,38.5,2c38,0,38.5,0,38.5-2c0-1.1-0.6-2.2-1.2-2.4c-0.7-0.3-4.6-1.4-8.5-2.5c-10.9-3.2-10.9-2.7-1.4-26.4
	c9.6-24.3,34.9-88.2,36.3-91.7c0.8-2,1.1-2.2,1.8-1c0.7,1.3,36.8,93.3,42.3,107.8c2,5.1,2,5.3,0.1,7.3c-2.2,2.5-5,3.7-11.9,5.4
	c-3.9,0.9-5.1,1.6-5.3,3.3l-0.3,2.2h39.3c38.9,0,39.4,0,39.4-2c0-1.4-0.9-2.2-2.6-2.6c-6.9-1.5-13.1-3.8-14.6-5.5
	c-1.4-1.6-1.6-2.6-0.7-6.2c0.5-2.3,10.8-29.4,22.7-60.2c33.5-86,36.6-93.8,38.4-95.8c2.7-3.1,6.8-4.7,13.2-5.4c5.5-0.5,6-0.8,6-2.9
	v-2.4h-81v2.3c0,2.1,0.8,2.5,5.8,3.7c6.8,1.5,10.7,3.4,11.5,5.5c0.5,1.2-34.7,99.7-37.2,104.3c-0.5,0.9-1.5-0.5-2.7-4
	c-1.1-2.9-9.8-25.4-19.3-50s-17.3-45.9-17.4-47.4c-0.3-3.5,4.3-6.8,11.9-8.5c6-1.3,6.7-1.9,5.8-4.3c-0.5-1.4-5.1-1.6-42.4-1.6
	s-41.9,0.2-42.4,1.6c-1,2.5,0,3.2,6.2,4.4c5.9,1.3,10.6,3.3,11.7,4.9c0.6,1-8.1,23.8-28.8,75.5c-6.8,17-12.7,30.5-13,30
	c-0.7-1.2-20.6-53.6-30.9-81.3c-4.3-11.8-7.8-22.4-7.6-23.5c0.4-2.7,5.7-5.3,12.8-6.3c4.6-0.7,5.5-1.2,5.5-2.8c0-2-0.8-2-40.6-2.3
	C-2139.5-1493.6-2143.7-1493.5-2144.3-1492L-2144.3-1492z M-1343.9-1491.2c0,2.1,0.7,2.5,6,3.5c11.2,2.2,16.7,5.8,23.3,14.9
	c1.9,2.6,16.3,22.8,32,44.9l28.6,40.1l0.2,33.8c0.1,33.3,0.1,33.8-2,35.5c-1.2,1-4,2-6.4,2.4c-8.9,1.3-9.8,1.6-9.5,3.3
	c0.3,1.5,3.8,1.7,38.1,2c37.2,0.2,37.7,0.2,37.7-1.8c0-1.1-0.1-2-0.2-2c-3.4-0.1-12.7-2.3-14.4-3.5l-2.4-1.5v-67.7l30.5-42.9
	c16.7-23.6,32.3-45.1,34.6-47.8c4.7-5.4,9.4-7.9,18.7-9.6c5.5-1.1,6.2-1.5,6.2-3.6v-2.4h-89v2.5c0,1.4,0.6,2.5,1.3,2.5
	c0.6,0,4,0.5,7.5,1c12.9,1.8,12.6,4.8-2.7,26.9c-3.7,5.3-11.3,16.3-17,24.4l-10.3,14.8l-16.5-24.3c-17.6-26-21.3-32.3-21.3-36.2
	c0-3.3,4.1-5.4,12-6.3c5.5-0.5,6-0.8,6-2.9v-2.4h-91L-1343.9-1491.2L-1343.9-1491.2z M-870.9-1491.2c0,2.1,0.6,2.4,5.6,3
	c6.9,0.8,11.2,2.9,11.9,5.9c0.3,1.2,0.6,29.9,0.8,63.7c0.3,60.7,0.3,61.6,2.6,69c3.1,10.5,6.6,16.3,13.1,22.4
	c14.6,13.5,39.2,19.9,76,19.9c33.9,0,59.3-6.9,72.9-19.6c8-7.6,13.8-20.6,15.5-34.7c0.3-2.5,0.5-30.7,0.5-62.6
	c0.1-67.6-0.9-61.9,10.9-63.7c6.5-1,7.2-1.4,7.2-3.4v-2.3h-35.9c-31.9,0-36,0.2-36.5,1.6c-1,2.5,0,3.1,5.8,3.8
	c7,0.8,10.5,2.4,11.2,5.1c0.3,1.2,0.4,28,0.2,59.6c-0.4,64.5-0.2,62.5-7.9,71.3c-7.5,8.5-19,12.5-38.9,13.3
	c-21,0.8-37.1-2.9-46.5-11c-4.8-4-8.4-11.6-9.5-19.9c-0.5-4-1-31.2-1-60.4c0-41.5,0.3-53.4,1.3-54.8c1.4-1.9,7.2-3.5,13-3.6
	c3.3,0,3.7-0.3,3.7-2.5v-2.5h-76L-870.9-1491.2L-870.9-1491.2z M-615.9-1491.1c0,2.1,0.5,2.5,3.1,2.5c5.2,0,11.9,2.2,13.4,4.3
	c1.3,1.8,1.5,13.5,1.5,82.5c0,51.2-0.4,81-1,82.2c-1.1,2-5.1,3.5-12.2,4.5c-3.9,0.5-4.8,1-4.8,2.6c0,1.8,1,1.9,36,1.9s36-0.1,36-1.9
	c0-1.6-0.9-2.1-4.7-2.6c-5.7-0.8-9.8-2.2-11.3-4c-0.8-0.9-1.1-18.9-1.1-58c0-31.2,0.1-56.8,0.3-57c0.4-0.3,85.2,87.1,98.6,101.5
	c5.3,5.8,9.2,10.9,9.2,12c0,2.3-4.2,4.5-10.2,5.5c-2.9,0.4-3.8,1.1-3.8,2.5c0,2,1,2,38,2c37.3,0,38,0,38-2c0-1.3-0.7-2-2-2.1
	c-1.1-0.1-2.3-0.2-2.7-0.3c-0.5-0.1-2.9-0.5-5.5-1c-8.4-1.3-7.8,5.2-7.8-85.7c0-75.3,0.1-80.8,1.8-82.8c1.8-2.3,7.4-4,13-4.1
	c2.7,0,3.2-0.3,3.2-2.5v-2.5l-36.2,0.2c-35.2,0.3-36.3,0.4-36.3,2.2c0,1.7,1.1,2.2,6.8,3.1c11.7,1.9,10.8-3.7,10.5,60.7l-0.3,55.6
	l-37.5-39c-64.6-67.1-66-68.6-66-71.3c0-3,3.9-5.3,10.5-6.2c3.9-0.5,4.5-0.9,4.5-2.9v-2.4h-81V-1491.1L-615.9-1491.1z M-99.9-1491.2
	c0,2.1,0.6,2.4,5.6,3c5.7,0.7,9.3,2,10.6,4c0.4,0.6,0.8,37.9,0.8,82.8v81.8l-2.4,1.5c-1.7,1.2-11,3.4-14.3,3.5c-0.2,0-0.3,0.9-0.3,2
	c0,2,0.7,2,36,2c35,0,36-0.1,36-1.9c0-1.6-0.9-2.1-4.7-2.6c-7.2-1-11.2-2.5-12.3-4.5c-0.7-1.2-0.9-22.3-0.8-58.9l0.3-57l15.5,29.2
	c8.5,16,17.3,32.5,19.5,36.7c9,16.6,15,27.8,18.5,34.5c8.5,16,13.2,24.5,13.5,24.5c0.2,0,2.8-4.4,5.8-9.8
	c11-19.9,63.9-113.7,64.6-114.4c0.3-0.4,0.5,25.2,0.4,56.9c-0.3,51.4-0.5,57.8-1.9,59.4c-1.6,1.8-3,2.2-11.1,3.4
	c-3.3,0.5-4.3,1.1-4.3,2.6c0,1.8,1.2,1.9,37.5,1.9c35.8,0,37.5-0.1,37.5-1.9c0-1.5-1.2-2-6.7-2.9c-11.4-1.9-10.3,7-10.3-84.2v-82.2
	c0-3.5,3.7-5.5,11.4-6.4c5-0.6,5.6-0.9,5.6-3v-2.4h-87v2.5c0,2.1,0.5,2.5,3,2.5c4,0,10.8,2.8,12,4.9c1.1,2.1-0.8,6.3-11.7,26.1
	c-4.4,8-9.6,17.4-11.5,21c-3.2,5.9-16.1,29.6-26,47.8l-4,7.4l-4.7-8.9c-2.6-4.8-9.4-17.6-15.1-28.3c-5.6-10.7-12-22.7-14-26.5
	c-12.9-24.2-18-34.4-18-35.7c0-2.4,3.4-4.8,9.5-6.6c3.1-0.9,5.6-2,5.5-2.5v-2.2c0-1.3-5.6-1.5-44-1.5h-44L-99.9-1491.2L-99.9-1491.2
	z M192.1-1491.3c0,2,0.7,2.4,7.2,3.4c12,1.9,10.9-7.3,10.6,87c-0.3,79.1-0.4,81.5-2.2,82.9c-1.1,0.7-3.4,1.6-5.3,1.9
	c-1.8,0.3-4.9,0.7-6.8,1c-2.6,0.5-3.5,1.1-3.5,2.5c0,2,1,2,38,2c36.9,0,38-0.1,38-1.9c0-1.6-0.9-2.1-4.7-2.6
	c-8.8-1.2-10.3-1.6-11.8-3.8c-1.3-1.9-1.5-12.7-1.5-83.3c0-93.4-1.2-83.8,11-85.7c6.3-1,7-1.4,7-3.4v-2.3h-76V-1491.3z
	 M-650.4-1187.5c-12.1,2.1-23.5,7.8-29.6,14.7c-9.8,11.1-10.2,30.1-0.8,39.9c7.9,8.2,18,11.4,40.9,12.8c29.5,1.9,35.4,3.3,37.9,9.4
	c2.2,5.3-0.4,9.8-7.9,13.6c-13.9,7-38.5,5.9-55.7-2.6c-6.9-3.3-8.8-5.7-7.9-9.9c0.3-2,0.1-3-1-3.4s-2.1,0.8-3.6,4.2
	c-1.1,2.6-4.5,10.1-7.5,16.6c-3.8,8.4-5.1,12.2-4.3,13c0.7,0.7,1.8,0.2,3.6-1.7c1.3-1.5,3.2-2.7,4.1-2.7c0.8,0,5.6,1.5,10.7,3.4
	c13,4.9,21.6,6,40.9,5.3c23.7-0.8,35.5-4.7,45.8-14.9c5.6-5.6,7.9-11.6,7.9-20.8c0-8.6-2.2-15-7-19.9c-8.3-8.6-19.4-11.5-51.3-13.6
	c-20.1-1.3-27.7-4.9-27.7-13.2c0-15.8,47.6-16.6,64.3-1c2.6,2.4,2.9,3.2,2.4,6.8c-0.8,6.1,2,4.7,6.1-3.1c1.9-3.6,5.9-10.7,8.8-15.8
	c3-5.1,5.4-9.7,5.4-10.2c0-2.1-2.1-1.9-4.4,0.5c-1.4,1.4-3,2.5-3.7,2.5c-0.6,0-6.4-1.8-12.8-3.9c-6.4-2.2-15.4-4.6-20-5.4
	C-626.3-1188.5-642.9-1188.9-650.4-1187.5L-650.4-1187.5z M-1302.9-1186.2c0,0.9,1.5,1.7,4,2.1c7.4,1.3,7-1.9,7,52.9
	c0,46.9-0.1,49.4-1.9,51c-1,0.9-3.5,2-5.5,2.3s-3.6,1.1-3.6,1.8c0,1.6,45.2,1.5,45.7-0.2c0.2-0.6-1.3-1.4-3.7-1.8
	c-6.7-1.1-7-2.3-7-23.7v-18.8h26.3c19.2,0,28-0.4,33.2-1.5c19.9-4.2,28.3-14.7,27.3-34c-1-18.3-10.8-27.7-32-30.4
	c-4-0.5-25.9-1-48.5-1C-1296.8-1187.6-1302.9-1187.4-1302.9-1186.2z M-1211.7-1165.2c4.3,2.2,6.1,5.8,6,12.1
	c-0.2,6-1.6,8.3-6.5,10.6c-3.8,1.7-6.8,1.9-29.9,1.9h-25.8v-27.1l26.3,0.3C-1218.1-1167.1-1215-1166.9-1211.7-1165.2L-1211.7-1165.2
	z M-1109.9-1186.1c0,0.8,0.8,1.5,1.9,1.5c3.7,0,8.1,2.2,8.6,4.3c0.4,1.5-4.1,12-14,32.7c-8.1,16.8-18,37.7-22.2,46.4
	c-4.1,8.8-8.2,17.1-9.1,18.4c-1.8,2.8-6.8,5.2-10.7,5.2c-4.1,0-2.8,1.8,1.8,2.5c2.3,0.3,12.3,0.4,22.1,0.3c13.3-0.2,18-0.6,18.4-1.6
	c0.2-0.7-0.5-1.2-1.6-1.2c-3.9,0-8.2-2.2-8.2-4.1c0-1,2.1-6.2,4.7-11.4l4.8-9.5l26,0.2l26,0.3l5,9.8c5.6,11.2,5.5,12.6-1.4,14.1
	c-2.3,0.5-4,1.4-3.8,2c0.6,1.7,50.7,1.7,50.7,0.1c0-0.7-1.9-1.5-4.2-1.8c-5.5-0.7-7.6-3.1-14.1-15.7c-35.5-69.3-42.9-84.3-42.3-86.5
	s5.2-4.5,9.4-4.5c0.6,0,1.2-0.7,1.2-1.5c0-1.3-3.4-1.5-24.5-1.5S-1109.9-1187.4-1109.9-1186.1L-1109.9-1186.1z M-1077.3-1135.8
	c4.1,9,7.4,16.5,7.4,16.8c0,0.2-8.3,0.4-18.5,0.4h-18.5l9.7-19.5c9.6-19.2,9.8-19.4,11.2-16.8
	C-1085.2-1153.4-1081.3-1144.8-1077.3-1135.8L-1077.3-1135.8z M-971.9-1186.3c0,1,1.4,1.8,4,2.2c7.4,1.3,7-1.9,7,52.9
	c0,55.2,0.5,51.7-7.2,53.1c-2.2,0.4-3.8,1.3-3.8,2.1c0,1.2,4,1.4,23,1.4c18.8,0,23-0.2,23-1.4c0-0.8-1.6-1.6-3.9-2
	c-2.1-0.3-4.4-1.2-5-2c-0.8-1-1.3-7.8-1.4-21l-0.2-19.6h30.1l12.9,18.2c7,10.1,13,19.3,13.3,20.5c0.3,1.8-0.2,2.3-3.4,3.2
	c-2.2,0.6-4.5,1.1-5.1,1.1c-0.7,0-1.3,0.4-1.3,0.9c0,1.6,2.4,1.8,26.8,1.8c18.6,0,24.2-0.2,24.2-1.2c0-0.7-1.8-1.5-4.1-1.8
	c-2.3-0.3-5.1-1.5-6.4-2.7c-2.2-2-29.5-40.4-29.5-41.3c0-0.3,1.5-0.8,3.3-1.1c4.3-0.8,12.9-4.9,17.1-8.1c1.8-1.4,4.6-4.9,6.2-7.7
	c2.7-4.9,2.9-6.1,2.9-15.3c0-8.5-0.3-10.7-2.3-14.5c-3.2-6.1-6.8-9.7-12.4-12.6c-10.9-5.6-12.7-5.7-62-6.2
	C-966.1-1187.7-971.9-1187.6-971.9-1186.3L-971.9-1186.3z M-882.9-1166.4c14.2,6.6,11.6,24.4-3.9,27.7c-2.9,0.6-14.8,1.1-27.1,1.1
	h-22l-0.1-11.8c-0.1-6.4-0.2-13.4-0.3-15.5l-0.2-3.8l25,0.3C-891-1168.1-885.8-1167.7-882.9-1166.4L-882.9-1166.4z M-789.9-1186.2
	c0,0.8,1.6,1.6,3.9,2c2.1,0.3,4.3,1.2,5,1.9c0.8,1,1.1,15.9,1.2,51.3c0.1,55.5,0.6,51.6-6.8,53c-1.9,0.4-3.2,1.1-3,1.8
	c0.4,1.1,38.7,2.1,43.5,1c3.5-0.7,2.6-2.2-1.8-2.9c-7.4-1.3-7,1.9-7-53c0-55.1-0.4-51.9,7.1-53.1c2.3-0.4,3.9-1.2,3.9-2
	c0-1.2-4.2-1.4-23-1.4S-789.9-1187.4-789.9-1186.2L-789.9-1186.2z"/>
<g>
	<path d="M-4484.4-1547.4v286.5h573.2l0-286.4l-0.1-286.5l-286.5-0.1l-286.5,0V-1547.4z M-3932-1547.4v265.8h-531.6v-531.7h531.6
		V-1547.4z"/>
	<g>
		<path d="M-4043.5-1492.8c0-3.5,3.7-5.5,11.4-6.4c5-0.6,5.6-0.9,5.6-3v-2.4h-87v2.5c0,2.1,0.5,2.5,3,2.5c4,0,10.8,2.8,12,4.9
			c1.1,2.1-0.8,6.3-11.7,26.1c-4.4,8-9.6,17.4-11.5,21c-3.2,5.9-16.1,29.6-26,47.8l-4,7.4l-4.7-8.9c-2.6-4.8-9.4-17.6-15.1-28.3
			c-5.6-10.7-12-22.7-14-26.5c-12.9-24.2-18-34.4-18-35.7c0-2.4,3.4-4.8,9.5-6.6c3.1-0.9,5.6-2,5.5-2.5v-2.2c0-1.3-5.6-1.5-44-1.5
			h-44v2.4c0,2.1,0.6,2.4,5.6,3c5.7,0.7,9.3,2,10.6,4c0.4,0.6,0.8,37.9,0.8,82.8v81.8l-2.4,1.5c-1.7,1.2-11,3.4-14.3,3.5
			c-0.2,0-0.3,0.9-0.3,2c0,2,0.7,2,36,2c35,0,36-0.1,36-1.9c0-1.6-0.9-2.1-4.7-2.6c-7.2-1-11.2-2.5-12.3-4.5
			c-0.7-1.2-0.9-22.3-0.8-58.9l0.3-57l15.5,29.2c8.5,16,17.3,32.5,19.5,36.7c9,16.6,15,27.8,18.5,34.5c8.5,16,13.2,24.5,13.5,24.5
			c0.2,0,2.8-4.4,5.8-9.8c11-19.9,63.9-113.7,64.6-114.4c0.3-0.4,0.5,25.2,0.4,56.9c-0.3,51.4-0.5,57.8-1.9,59.4
			c-1.6,1.8-3,2.2-11.1,3.4c-3.3,0.5-4.3,1.1-4.3,2.6c0,1.8,1.2,1.9,37.5,1.9c35.8,0,37.5-0.1,37.5-1.9c0-1.5-1.2-2-6.7-2.9
			c-11.4-1.9-10.3,7-10.3-84.2V-1492.8z"/>
		<path d="M-4240.5-1596v2.5c0,1.4,0.6,2.5,1.3,2.5c0.6,0,4,0.5,7.5,1c12.9,1.8,12.6,4.8-2.7,26.9c-3.7,5.3-11.3,16.3-17,24.4
			l-10.3,14.8l-16.5-24.3c-17.6-26-21.3-32.3-21.3-36.2c0-3.3,4.1-5.4,12-6.3c5.5-0.5,6-0.8,6-2.9v-2.4h-91v2.4c0,2.1,0.7,2.5,6,3.5
			c11.2,2.2,16.7,5.8,23.3,14.9c1.9,2.6,16.3,22.8,32,44.9l28.6,40.1l0.2,33.8c0.1,33.3,0.1,33.8-2,35.5c-1.2,1-4,2-6.4,2.4
			c-8.9,1.3-9.8,1.6-9.5,3.3c0.3,1.5,3.8,1.7,38.1,2c37.2,0.2,37.7,0.2,37.7-1.8c0-1.1-0.1-2-0.2-2c-3.4-0.1-12.7-2.3-14.4-3.5
			l-2.4-1.5v-67.7l30.5-42.9c16.7-23.6,32.3-45.1,34.6-47.8c4.7-5.4,9.4-7.9,18.7-9.6c5.5-1.1,6.2-1.5,6.2-3.6v-2.4H-4240.5z"/>
		<path d="M-4080.8-1660.6c33.5-86,36.6-93.8,38.4-95.8c2.7-3.1,6.8-4.7,13.2-5.4c5.5-0.5,6-0.8,6-2.9v-2.4h-81v2.3
			c0,2.1,0.8,2.5,5.8,3.7c6.8,1.5,10.7,3.4,11.5,5.5c0.5,1.2-34.7,99.7-37.2,104.3c-0.5,0.9-1.5-0.5-2.7-4
			c-1.1-2.9-9.8-25.4-19.3-50c-9.5-24.6-17.3-45.9-17.4-47.4c-0.3-3.5,4.3-6.8,11.9-8.5c6-1.3,6.7-1.9,5.8-4.3
			c-0.5-1.4-5.1-1.6-42.4-1.6c-37.3,0-41.9,0.2-42.4,1.6c-1,2.5,0,3.2,6.2,4.4c5.9,1.3,10.6,3.3,11.7,4.9c0.6,1-8.1,23.8-28.8,75.5
			c-6.8,17-12.7,30.5-13,30c-0.7-1.2-20.6-53.6-30.9-81.3c-4.3-11.8-7.8-22.4-7.6-23.5c0.4-2.7,5.7-5.3,12.8-6.3
			c4.6-0.7,5.5-1.2,5.5-2.8c0-2-0.8-2-40.6-2.3c-36.5-0.2-40.7-0.1-41.3,1.4l0,0c-0.9,2.4-0.1,3.1,5.1,3.7
			c7.7,0.9,12.1,3.3,15.2,8.2c2.3,3.7,56.4,141.3,60.1,152.8c1.1,3.5,1,4.1-1,6.2c-1.2,1.2-4.7,3-7.8,4c-3.1,0.9-6.3,1.8-6.9,2.1
			c-0.7,0.2-1.3,1.3-1.3,2.4c0,2,0.5,2,38.5,2s38.5,0,38.5-2c0-1.1-0.6-2.2-1.2-2.4c-0.7-0.3-4.6-1.4-8.5-2.5
			c-10.9-3.2-10.9-2.7-1.4-26.4c9.6-24.3,34.9-88.2,36.3-91.7c0.8-2,1.1-2.2,1.8-1c0.7,1.3,36.8,93.3,42.3,107.8
			c2,5.1,2,5.3,0.1,7.3c-2.2,2.5-5,3.7-11.9,5.4c-3.9,0.9-5.1,1.6-5.3,3.3l-0.3,2.2h39.3c38.9,0,39.4,0,39.4-2
			c0-1.4-0.9-2.2-2.6-2.6c-6.9-1.5-13.1-3.8-14.6-5.5c-1.4-1.6-1.6-2.6-0.7-6.2C-4103-1602.7-4092.7-1629.8-4080.8-1660.6z"/>
	</g>
</g>
<image style="overflow:visible;" width="897" height="1021" xlink:href="1AF01119.jpg"  transform="matrix(1 0 0 1 -5497.2793 -1216.1234)">
</image>
</svg>
